<?xml version="1.0" standalone="no"?>
<!DOCTYPE svg PUBLIC "-//W3C//DTD SVG 20010904//EN"
 "http://www.w3.org/TR/2001/REC-SVG-20010904/DTD/svg10.dtd">
<svg version="1.0" xmlns="http://www.w3.org/2000/svg"
 width="700.000000pt" height="700.000000pt" viewBox="0 0 700.000000 700.000000"
 preserveAspectRatio="xMidYMid meet">
<metadata>
Created by potrace 1.11, written by Peter Selinger 2001-2013
</metadata>
<g transform="translate(0.000000,700.000000) scale(0.100000,-0.100000)"
fill="#000000" stroke="none">
<path d="M510 6990 c-125 -22 -229 -77 -326 -174 -76 -77 -119 -144 -156 -246
l-23 -65 -3 -2975 c-2 -2158 0 -2991 8 -3035 14 -76 77 -205 129 -268 88 -106
233 -194 356 -217 43 -8 881 -10 3040 -8 l2980 3 67 26 c190 74 326 213 390
398 l23 66 0 3010 0 3010 -26 67 c-61 158 -164 278 -297 346 -153 79 140 72
-3163 71 -1625 -1 -2974 -5 -2999 -9z m1437 -842 c46 -21 73 -53 91 -107 8
-23 12 -139 12 -357 l0 -323 338 -3 c327 -3 338 -4 379 -25 61 -33 97 -98 97
-177 -1 -100 -45 -165 -133 -194 -23 -8 -139 -12 -357 -12 l-323 0 -3 -337
c-3 -320 -4 -340 -24 -378 -32 -61 -99 -99 -178 -99 -80 0 -137 31 -174 94
l-27 45 -3 337 -3 337 -337 3 c-378 3 -390 5 -437 77 -70 105 -42 245 60 303
39 23 46 23 377 26 l337 3 3 337 c3 331 3 338 26 377 55 95 168 125 279 73z
m4118 -814 c70 -38 105 -97 105 -179 0 -93 -52 -166 -134 -190 -74 -22 -1688
-22 -1762 0 -84 25 -134 96 -134 190 0 102 62 178 157 195 26 4 426 7 888 7
838 -2 840 -2 880 -23z m-4960 -2483 c26 -12 160 -140 390 -370 l350 -351 355
355 c239 238 367 359 392 370 128 53 278 -55 278 -199 0 -64 -31 -101 -385
-456 l-355 -355 355 -355 c381 -381 393 -396 382 -480 -8 -60 -51 -125 -102
-155 -55 -33 -99 -40 -155 -25 -40 11 -83 50 -405 371 l-360 359 -345 -346
c-190 -190 -359 -354 -376 -364 -99 -63 -233 -12 -287 109 -23 52 -18 116 13
165 10 17 174 186 364 376 l346 345 -359 360 c-321 322 -360 365 -371 405 -25
92 19 185 109 232 62 33 110 35 166 9z m4931 -406 c27 -8 62 -27 76 -42 84
-87 75 -239 -18 -309 l-37 -29 -902 0 -902 0 -36 28 c-57 44 -80 97 -75 177 3
55 9 74 31 104 34 43 66 66 110 76 17 5 408 8 868 9 710 1 843 -1 885 -14z m0
-820 c27 -8 62 -27 76 -42 84 -87 75 -239 -18 -309 l-37 -29 -902 0 -902 0
-36 28 c-51 39 -77 93 -77 163 0 94 48 163 131 189 68 21 1694 21 1765 0z"/>
</g>
</svg>
