<?xml version="1.0" standalone="no"?>
<!DOCTYPE svg PUBLIC "-//W3C//DTD SVG 20010904//EN"
 "http://www.w3.org/TR/2001/REC-SVG-20010904/DTD/svg10.dtd">
<svg version="1.0" xmlns="http://www.w3.org/2000/svg"
 width="700.000000pt" height="700.000000pt" viewBox="0 0 700.000000 700.000000"
 preserveAspectRatio="xMidYMid meet">
<metadata>
Created by potrace 1.11, written by Peter Selinger 2001-2013
</metadata>
<g transform="translate(0.000000,700.000000) scale(0.100000,-0.100000)"
fill="#000000" stroke="none">
<path d="M3278 6996 c-1 -2 -42 -6 -89 -10 -47 -4 -96 -9 -109 -11 -13 -2 -48
-7 -79 -10 -31 -3 -63 -7 -71 -10 -8 -2 -33 -6 -54 -10 -22 -3 -89 -17 -150
-31 -823 -188 -1526 -647 -2036 -1329 -301 -404 -520 -888 -615 -1360 -8 -38
-16 -79 -18 -90 -3 -11 -8 -40 -12 -65 -3 -25 -9 -58 -11 -74 -3 -16 -7 -50
-9 -75 -3 -25 -8 -82 -12 -126 -10 -102 -10 -495 0 -599 8 -87 11 -105 27
-216 6 -41 13 -86 15 -100 17 -127 142 -565 189 -665 8 -16 23 -53 34 -81 80
-202 294 -574 426 -739 48 -60 49 -63 28 -99 -69 -118 -92 -281 -57 -419 60
-240 269 -418 511 -434 273 -19 517 147 594 405 60 202 6 414 -145 567 -163
166 -405 216 -620 128 l-60 -24 -23 28 c-40 49 -177 255 -224 338 -141 247
-266 549 -324 780 -80 323 -108 538 -108 840 1 611 161 1173 483 1693 245 395
577 737 967 994 192 127 346 207 609 318 75 31 330 112 396 125 9 2 59 12 110
23 52 11 130 25 174 32 44 6 94 13 110 15 71 11 251 19 385 19 221 -1 329 -11
601 -55 91 -14 126 -5 163 45 30 41 38 74 26 118 -20 71 -74 99 -235 123 -23
3 -52 7 -65 10 -13 3 -52 7 -86 11 -33 3 -74 8 -90 10 -32 5 -540 14 -546 10z"/>
<path d="M4722 6753 c-33 -6 -88 -65 -95 -103 -21 -104 73 -191 173 -158 84
27 118 125 71 202 -28 45 -90 70 -149 59z"/>
<path d="M5632 6545 c-84 -20 -194 -80 -257 -142 -185 -181 -230 -437 -118
-672 67 -140 226 -267 378 -301 115 -27 257 -14 363 31 l47 20 23 -28 c39 -48
157 -224 207 -308 210 -355 373 -822 420 -1200 4 -28 8 -64 10 -80 19 -153 24
-440 11 -620 -6 -86 -23 -215 -41 -320 -26 -143 -100 -422 -136 -510 -7 -16
-13 -34 -15 -40 -14 -58 -157 -359 -233 -492 -220 -385 -562 -757 -941 -1024
-415 -292 -936 -497 -1415 -554 -27 -4 -57 -8 -65 -10 -35 -9 -207 -18 -360
-19 -231 0 -349 10 -588 50 -105 17 -142 11 -186 -32 -55 -55 -39 -167 29
-206 27 -15 195 -50 305 -62 245 -28 655 -28 858 0 224 30 336 54 542 111 134
38 339 110 354 124 6 5 16 9 23 9 21 0 272 123 389 190 326 188 661 461 886
724 34 39 68 77 75 84 16 17 170 223 210 282 128 190 246 410 338 634 81 197
172 514 200 696 2 19 7 45 9 57 10 50 23 147 33 258 15 157 6 696 -12 725 -2
3 -6 32 -10 64 -3 33 -8 62 -9 65 -2 3 -7 29 -10 56 -22 164 -107 463 -197
690 -106 269 -236 507 -407 746 l-92 129 31 61 c17 34 32 69 34 78 2 9 8 37
14 63 66 289 -125 595 -419 671 -67 18 -206 19 -278 2z"/>
<path d="M3033 5983 c-31 -6 -81 -58 -90 -94 -5 -16 -8 -89 -7 -163 l0 -133
-125 -42 c-69 -24 -182 -70 -251 -104 -69 -34 -128 -63 -132 -65 -4 -2 -55 44
-114 102 -80 79 -115 107 -140 112 -80 15 -82 14 -419 -322 -174 -174 -325
-330 -336 -348 -22 -35 -24 -90 -6 -124 7 -12 58 -68 112 -123 l100 -100 -41
-77 c-64 -119 -164 -374 -164 -417 0 -18 14 -17 -160 -19 -126 -1 -150 -4
-180 -22 -70 -40 -69 -35 -67 -554 2 -448 3 -466 22 -492 37 -51 74 -61 231
-60 l143 0 32 -97 c40 -121 68 -189 131 -318 l50 -103 -95 -94 c-52 -51 -102
-108 -111 -124 -18 -35 -21 -79 -7 -114 11 -27 610 -631 660 -665 39 -26 89
-30 129 -9 15 8 70 58 122 110 52 53 98 96 102 96 4 0 68 -29 141 -65 73 -35
186 -82 252 -104 l120 -39 1 -149 c0 -135 2 -153 22 -185 40 -65 26 -63 546
-63 455 0 472 1 498 20 55 41 62 66 63 228 l0 148 125 43 c69 23 185 71 258
106 l133 64 102 -102 c127 -126 173 -146 242 -104 17 11 173 162 347 337 338
338 339 339 324 419 -5 26 -32 60 -113 141 l-106 107 48 95 c63 128 101 220
135 328 l28 90 150 2 c171 1 195 9 231 73 20 37 21 49 21 492 0 422 -1 456
-19 488 -36 69 -53 74 -227 74 l-155 1 -21 70 c-30 98 -81 223 -140 343 l-51
103 105 107 c58 59 109 118 113 130 4 13 4 44 0 68 -6 41 -24 61 -336 373
-353 352 -352 352 -433 337 -26 -5 -60 -32 -140 -112 -59 -58 -110 -104 -114
-102 -4 2 -65 32 -135 66 -71 35 -184 81 -250 103 l-122 40 0 142 c-1 164 -9
194 -65 231 l-38 25 -454 -1 c-249 0 -463 -3 -475 -5z m624 -1642 c526 -97
836 -660 637 -1157 -162 -405 -606 -625 -1024 -508 -279 78 -507 303 -589 579
-46 158 -48 272 -6 478 10 48 66 169 111 237 135 206 360 348 594 376 30 3 56
7 58 9 7 6 163 -4 219 -14z"/>
<path d="M2172 490 c-72 -45 -80 -153 -17 -209 45 -39 89 -47 143 -26 53 22
82 67 82 129 0 39 -6 52 -33 83 -29 31 -41 37 -88 40 -42 3 -61 0 -87 -17z"/>
</g>
</svg>
